<svg width="432" height="86" viewBox="0 0 432 86" fill="none" xmlns="http://www.w3.org/2000/svg">
<g clip-path="url(#clip0_21_3)">
<path d="M37.4999 6.62996L37.5299 6.65996L37.5599 6.63996C37.9299 6.30996 38.0899 5.97996 38.0499 5.62996C38.0299 5.44996 37.9599 5.30996 37.8499 5.20996C37.7399 5.10996 37.5899 5.06996 37.4299 5.08996C37.1599 5.11996 36.8999 5.36996 36.9399 5.71996C36.9899 6.11996 37.2799 6.41996 37.4999 6.62996Z" fill="#008156"/>
<path d="M38.9699 26.14V24.6H21.6699C21.2499 25.1 20.8299 25.61 20.4399 26.14H38.9599H38.9699Z" fill="#008156"/>
<path d="M38.9699 28.28H18.9999C18.6999 28.78 18.4299 29.29 18.1599 29.81L38.9699 29.78V28.28Z" fill="#008156"/>
<path d="M38.95 32.03H17.12C16.91 32.54 16.71 33.05 16.54 33.57H38.95V32.03Z" fill="#008156"/>
<path d="M48.5901 15.71C46.6301 15.27 44.6101 15.03 42.5201 15.03C40.3201 15.03 38.1801 15.3 36.1201 15.79L42.3601 20.37L48.5901 15.71Z" fill="#008156"/>
<path d="M38.9899 22.51L31.6999 17.24C28.7099 18.52 25.9899 20.32 23.6599 22.54H38.9899V22.51Z" fill="#008156"/>
<path d="M38.9399 36.25V35.8H15.8799C15.4799 37.32 15.2399 38.89 15.1299 40.5L35.1999 40.4701C35.1999 40.4701 38.7699 40.52 38.9399 36.25Z" fill="#008156"/>
<path d="M61.3801 22.54C58.8901 20.18 55.9601 18.29 52.7201 16.99L45.5701 22.54H61.3801Z" fill="#008156"/>
<path d="M40.87 64.56C39.5 63.04 38.14 61.31 37.01 59.47V67.96C38.46 66.9 39.75 65.75 40.87 64.57V64.56Z" fill="#008156"/>
<path d="M31.41 53.47V53.37L17.25 53.34C18.51 56.26 20.23 58.88 22.34 61.18C24.26 60.34 29.02 57.9 31.41 53.47Z" fill="#008156"/>
<path d="M42.4 66.1899C40.86 67.8799 39.57 69.0399 38.72 69.7299C39.97 69.9099 41.23 69.9999 42.52 69.9999C43.81 69.9999 45.03 69.9099 46.26 69.7499C45.25 68.8999 43.86 67.6699 42.4 66.1899Z" fill="#008156"/>
<path d="M42.37 39.86C42.37 39.86 41.06 42.64 37 42.9H15.04C15.08 45.64 15.52 48.28 16.3 50.78H31.41V45.47H37V50.76H47.77V45.42L53.45 45.41V50.75L68.77 50.74C69.55 48.25 69.97 45.62 70.01 42.9H47.99C47.99 42.9 44.26 42.92 42.39 39.87L42.37 39.86Z" fill="#008156"/>
<path d="M24.22 63.03C26.36 64.93 28.78 66.51 31.43 67.66V57.74C29.97 59.43 27.65 61.49 24.22 63.03Z" fill="#008156"/>
<path d="M45.5701 29.78L66.8601 29.76C66.6001 29.25 66.3201 28.75 66.0301 28.25L45.5601 28.27V29.77L45.5701 29.78Z" fill="#008156"/>
<path d="M53.4199 53.4C54.4099 55.01 57.2399 58.8 62.8999 60.96C64.9099 58.73 66.5699 56.18 67.7799 53.39H53.4199V53.4Z" fill="#008156"/>
<path d="M45.6001 36.0801L45.6201 36.12C45.6201 36.12 45.9101 40.0901 49.6501 40.4701H69.9401C69.8201 38.8701 69.5701 37.31 69.1901 35.8H45.6101V36.0801H45.6001Z" fill="#008156"/>
<path d="M42.34 62.89C45.27 59.3 46.93 55.61 47.74 53.37H37.02C37.71 55.26 39.37 59.17 42.34 62.89Z" fill="#008156"/>
<path d="M45.5801 33.58H68.5201C68.3301 33.05 68.1301 32.52 67.9101 31.99L45.5801 32.02V33.58Z" fill="#008156"/>
<path d="M53.4101 57.5L53.3601 67.78C56.2301 66.56 58.8301 64.86 61.0801 62.79C59.2501 62.03 55.8901 60.37 53.4101 57.5Z" fill="#008156"/>
<path d="M47.7401 68.01V59.24C46.3801 61.32 45.05 63.11 43.8 64.59C44.95 65.81 46.2501 66.98 47.7401 68.01Z" fill="#008156"/>
<path d="M45.57 26.14H64.6C64.22 25.61 63.8 25.1 63.35 24.6H45.55V26.14H45.57Z" fill="#008156"/>
<path d="M42.5099 1.91003C20.1299 1.91003 1.90991 20.13 1.90991 42.52C1.90991 64.91 20.1299 83.13 42.5199 83.13C64.9099 83.13 83.1399 64.91 83.1399 42.52C83.1399 20.13 64.8999 1.91003 42.5099 1.91003ZM78.3099 43.62H78.2699L78.1899 45.08V45.12L80.8399 45.26L80.7799 46.43L74.2299 46.09L74.2899 44.92L77.2099 45.07H77.2499L77.3299 43.61V43.57L74.3799 43.42L74.4399 42.25L80.9899 42.59L80.9299 43.76L78.3199 43.62H78.3099ZM75.9099 55.33L75.3399 56.72L77.7999 57.73L77.3499 58.81L71.2899 56.33L71.7399 55.25L74.4699 56.37L75.0399 54.98L72.2999 53.86L72.7499 52.78L78.8099 55.26L78.3599 56.34L75.9099 55.33ZM69.1799 70.16L67.3799 68.21L66.2799 69.23L68.0799 71.18L67.2199 71.98L62.7699 67.18L63.6299 66.38L65.6399 68.55L66.7399 67.53L64.7299 65.36L65.5899 64.56L70.0399 69.36L69.1799 70.16ZM65.4199 72.92C65.3399 73.36 65.0499 73.75 64.5399 74.11C62.8799 75.26 61.9399 73.92 60.9399 72.49C60.2599 71.52 59.6199 70.61 59.7699 69.75C59.8499 69.31 60.1399 68.92 60.6499 68.56C61.0899 68.25 61.4799 68.12 61.8299 68.12C62.8099 68.12 63.5099 69.13 64.2499 70.18C64.9299 71.15 65.5699 72.07 65.4199 72.91V72.92ZM57.8999 76.75C57.3899 76.3 57.0099 75.56 56.6099 74.77C55.8199 73.22 55.0799 71.75 56.8799 70.84C57.2499 70.65 57.5899 70.55 57.8999 70.55C58.2699 70.55 58.6099 70.69 58.9199 70.96C59.4299 71.41 59.8099 72.15 60.2099 72.94L60.2399 72.93L60.2099 72.95C60.9999 74.5 61.7399 75.97 59.9399 76.88C59.1199 77.3 58.4699 77.26 57.8999 76.76V76.75ZM55.8099 78.55L53.9199 73.4V73.36L52.1599 74L51.8099 73.04L54.6599 71.99L56.9199 78.13L55.8199 78.53L55.8099 78.55ZM70.0899 66.26C70.5599 66.64 70.8499 66.8 71.0799 66.78C71.1899 66.77 71.2899 66.71 71.3699 66.61C71.5999 66.33 71.5899 66.05 71.3499 65.69C71.1099 65.35 70.6599 64.94 69.9999 64.4C68.7099 63.33 68.0499 62.89 67.5699 63.47C67.1999 63.91 67.7599 64.39 68.1599 64.75L68.2199 64.8L67.4799 65.69C66.2599 64.67 66.0799 63.83 66.8599 62.89C67.4399 62.18 68.0599 61.96 68.7799 62.19C69.4299 62.4 70.0699 62.93 70.7499 63.49C72.0899 64.6 73.3599 65.65 72.0699 67.2C71.7199 67.62 71.3599 67.84 70.9499 67.87C70.4599 67.91 69.9399 67.67 69.3499 67.15L70.0799 66.26H70.0899ZM72.4699 63.63L73.0799 62.67C73.4799 62.92 73.9699 63.14 74.2499 62.69C74.4799 62.33 74.3899 61.97 73.9899 61.72C73.5099 61.41 72.9799 61.68 72.4299 61.95C71.7099 62.31 70.8899 62.72 69.9199 62.1C69.2799 61.69 68.9599 61.23 68.9499 60.69C68.9499 60.19 69.1999 59.72 69.4299 59.37C69.7499 58.87 70.1099 58.58 70.5199 58.5C70.9799 58.41 71.4999 58.58 72.1199 59.02L71.4899 60.01C71.0199 59.71 70.4999 59.4 70.1099 60.01C69.8799 60.37 69.9999 60.73 70.4199 60.99C70.8799 61.28 71.4199 61.03 71.9899 60.76C72.7299 60.42 73.5799 60.03 74.4999 60.61C74.9999 60.93 75.2999 61.3 75.3999 61.71C75.4999 62.15 75.3699 62.65 75.0099 63.21C74.6899 63.71 74.3399 64 73.9299 64.07C73.4999 64.15 73.0299 64 72.4799 63.61L72.4699 63.63ZM45.1699 4.19003L45.6699 8.73003V8.76003H45.7499L47.1599 4.37003L49.0199 4.54003L48.4099 11.06L47.2799 10.95L47.7499 5.90003V5.86003H47.6699L46.0499 10.84L44.9299 10.73L44.3299 5.58003V5.55003H44.2399L43.7599 10.63L42.6299 10.52L43.2399 4.00003L45.1699 4.18003V4.19003ZM51.5199 5.17003L50.0799 11.56L48.9299 11.3L50.3699 4.91003L51.5199 5.17003ZM54.8099 6.13003C55.1999 6.26003 55.4799 6.50003 55.6199 6.84003C55.7599 7.19003 55.7499 7.65003 55.5799 8.16003C55.2999 9.04003 54.7899 9.43003 54.0699 9.34003H54.0399L54.0099 9.41003L54.0599 9.43003C54.3399 9.56003 54.9899 9.88003 54.6499 10.95C54.5299 11.33 54.1899 12.43 54.1799 12.8L53.0899 12.45C53.0699 12.09 53.1899 11.74 53.2999 11.4C53.3199 11.34 53.3399 11.29 53.3599 11.23L53.3999 11.09C53.5499 10.64 53.6799 10.25 53.5199 9.94003C53.4299 9.75003 53.2299 9.61003 52.9299 9.52003L52.5899 9.41003L51.7499 12.02L50.6299 11.66L52.6499 5.43003L54.8099 6.13003ZM58.1599 7.44003L55.5799 13.46L54.4999 13L57.0799 6.98003L58.1599 7.44003ZM61.0999 8.89003L59.6299 13.22V13.25L59.6899 13.29L62.8299 9.91003L64.4399 10.86L61.1199 16.5L60.1399 15.92L62.7099 11.55L62.7299 11.52L62.6499 11.48L59.0699 15.3L58.0999 14.73L59.7399 9.80003V9.77003L59.6799 9.73003L57.0899 14.13L56.1099 13.55L59.4299 7.91003L61.0999 8.89003ZM68.4799 14.22L66.0399 18.08L66.0199 18.11L66.0799 18.16L69.9199 15.61L71.2699 16.91L66.7199 21.62L65.8999 20.83L69.4499 17.16L69.3899 17.1L65.0099 19.98L64.1999 19.19L66.9499 14.78L66.9699 14.75L66.9099 14.69L63.3599 18.37L62.5399 17.58L67.0899 12.87L68.4799 14.22ZM74.5999 21.43L75.2299 22.42L69.7099 25.93L69.0799 24.94L74.5899 21.43H74.5999ZM73.3499 21.18L72.1299 19.58L70.7999 20.59L70.7699 20.61L71.8899 22.08L71.1399 22.65L70.0199 21.18L68.4499 22.38L68.4199 22.4L69.6799 24.05L68.9299 24.62L66.9599 22.04L72.1699 18.07L74.0999 20.6L73.3499 21.17V21.18ZM79.1799 39.83C78.2599 39.94 77.6899 39.65 77.4699 38.96V38.93L77.3799 38.94V39C77.3799 39.28 77.3799 40.04 76.2499 40.17C75.8299 40.22 74.7099 40.38 74.3699 40.53L74.2299 39.39C74.5399 39.22 74.9099 39.18 75.2599 39.14C75.3199 39.14 75.3899 39.13 75.4499 39.12L75.5899 39.1C76.0599 39.04 76.4699 39 76.6899 38.72C76.8199 38.56 76.8599 38.32 76.8199 38.01L76.7699 37.65L74.0499 37.99L73.9099 36.83L80.4099 36.02L80.6899 38.27C80.7999 39.13 80.2399 39.69 79.1699 39.83H79.1799ZM79.2899 35.13L78.8199 33.22V33.18L77.1899 33.58H77.1499L77.5899 35.39L76.6799 35.62L76.2399 33.86V33.82L74.3199 34.3H74.2799L74.7799 36.32L73.8599 36.55L73.0799 33.4L79.4299 31.82L80.1999 34.91L79.2899 35.14V35.13ZM78.2599 31.36L77.7799 30.06L72.5999 31.99L72.1899 30.89L77.3699 28.96L76.8899 27.66L77.8499 27.3L79.2199 31L78.2599 31.36ZM77.0399 26.41C76.8899 26.82 76.5299 27.16 75.9099 27.43L75.3899 26.41C75.8099 26.19 76.2399 25.88 75.9999 25.41C75.9099 25.23 75.7799 25.11 75.6199 25.06C75.4499 25 75.2499 25.03 75.0299 25.15C74.5199 25.41 74.4799 26 74.4399 26.62C74.3899 27.42 74.3299 28.33 73.2999 28.86C72.7399 29.15 72.2499 29.22 71.8399 29.09C71.2699 28.91 70.9299 28.36 70.6899 27.9C70.4199 27.38 70.3499 26.91 70.4899 26.52C70.6399 26.08 71.0599 25.72 71.7499 25.4L72.2899 26.44C71.7999 26.69 71.2599 26.99 71.5999 27.64C71.6899 27.81 71.8099 27.92 71.9599 27.97C72.1399 28.03 72.3699 28 72.5999 27.87C73.0799 27.62 73.1399 27.03 73.1999 26.39C73.2799 25.57 73.3699 24.65 74.3299 24.15C74.8699 23.87 75.3199 23.8 75.7299 23.94C76.1599 24.08 76.5299 24.44 76.8299 25.03C77.0999 25.56 77.1699 26.01 77.0299 26.4L77.0399 26.41ZM77.3899 53.33L77.6799 52.2C78.0299 52.29 78.4099 52.35 78.6799 52.2C78.8299 52.11 78.9399 51.95 78.9999 51.73C79.1999 50.94 78.0299 50.65 76.7899 50.33C74.8099 49.83 74.3499 49.88 74.1599 50.62C74.1099 50.8 74.0999 51.03 74.1299 51.26V51.29L75.5799 51.66H75.6199L75.7899 51.01L76.6999 51.24L76.2399 53.03L73.0499 52.22C73.0699 51.86 73.1299 51.04 73.2499 50.57C73.7699 48.55 74.7799 48.59 77.1499 49.19C78.9199 49.64 80.3399 50.16 79.8699 52.02C79.7299 52.59 79.4299 53.01 79.0199 53.24C78.5899 53.48 78.0299 53.51 77.3999 53.32L77.3899 53.33ZM73.9399 47.84L74.1099 46.68L80.5899 47.65L80.4199 48.81L73.9399 47.84ZM42.5199 12.61C59.0099 12.61 72.4199 26.04 72.4199 42.52C72.4199 59 59.0099 72.41 42.5199 72.41C26.0299 72.41 12.6199 58.99 12.6199 42.52C12.6199 26.05 26.0299 12.61 42.5199 12.61ZM47.2799 80.42C47.0099 80.22 46.8399 79.86 46.7599 79.34L47.8299 79.17C47.8599 79.35 47.9099 79.49 47.9799 79.58C48.0799 79.71 48.2299 79.76 48.3899 79.74C48.5499 79.71 48.6599 79.66 48.7199 79.56C48.8899 79.33 48.8099 78.89 48.6699 78.01C48.6499 77.88 48.6299 77.74 48.5999 77.59L48.5799 77.49L48.5299 77.57C48.3299 77.88 48.0499 78.06 47.6799 78.12C47.3899 78.17 47.1299 78.11 46.9099 77.95C46.5799 77.71 46.3299 77.23 46.2399 76.64C45.9999 75.13 46.3899 74.35 47.4799 74.17C47.9699 74.09 48.3499 74.16 48.6399 74.37C49.2699 74.83 49.4399 75.89 49.6399 77.12V77.14C49.8799 78.63 50.1499 80.32 48.4999 80.59C47.9499 80.68 47.5599 80.62 47.2799 80.42ZM43.0199 80.93L44.4099 75.51V75.46L42.4299 75.52L42.3999 74.61L45.4199 74.51L45.4599 75.69L44.2299 80.89L43.0099 80.93H43.0199ZM41.7399 77.78V77.8C41.6299 79.31 41.5099 81.01 39.8399 80.9C39.2799 80.86 38.9199 80.72 38.6999 80.46C38.4799 80.2 38.3899 79.82 38.4399 79.29L39.5199 79.36C39.5099 79.55 39.5199 79.69 39.5799 79.8C39.6499 79.95 39.7799 80.04 39.9399 80.05C40.4999 80.09 40.5299 79.64 40.6099 78.43C40.6099 78.3 40.6299 78.15 40.6399 78V77.9L40.5799 77.97C40.3099 78.23 39.9999 78.34 39.6199 78.32C39.3299 78.3 39.0899 78.19 38.9099 77.98C38.6399 77.67 38.5099 77.15 38.5499 76.54C38.6499 75.04 39.2299 74.34 40.3099 74.41C40.7999 74.44 41.1599 74.59 41.3999 74.87C41.9099 75.46 41.8299 76.53 41.7499 77.77L41.7399 77.78ZM35.7699 80.32L36.5899 75.41L36.5199 75.46C36.2299 75.65 35.8899 75.82 35.5099 75.98L35.6899 74.88C36.0899 74.71 36.5499 74.49 36.9299 74.1L37.9699 74.28L36.9199 80.52L35.7599 80.32H35.7699ZM28.5199 78.3L29.4099 73.82V73.79L29.3499 73.76L26.6799 77.53L24.9499 76.8L27.4999 70.77L28.5499 71.21L26.5599 75.92L26.6399 75.95L29.6899 71.69L30.7299 72.13L29.7499 77.23V77.26L29.8199 77.29L31.8099 72.58L32.8599 73.02L30.3099 79.05L28.5199 78.3ZM22.7999 75.47L26.0899 69.81L27.0999 70.4L23.8099 76.06L22.7999 75.47ZM17.4899 65.37L17.4399 65.32L13.4499 67.63L12.1899 66.25L17.0299 61.83L17.7999 62.67L14.0499 66.09L14.0199 66.12L14.0799 66.18L18.6299 63.58L19.3899 64.41L16.3699 68.64L16.3499 68.66L16.3999 68.72L20.1799 65.27L20.9499 66.11L16.1099 70.53L14.8099 69.1L17.5099 65.37H17.4899ZM9.23991 61.89C8.93991 61.38 8.84991 60.88 8.97991 60.42C9.11991 59.95 9.48991 59.53 10.0699 59.23L10.6599 60.23C10.3499 60.41 10.0299 60.63 9.94991 60.93C9.89991 61.1 9.93991 61.29 10.0599 61.49C10.4699 62.19 11.5099 61.58 12.6199 60.94C13.8699 60.21 14.3199 59.84 14.4199 59.48C14.4699 59.3 14.4199 59.13 14.2899 58.89C14.1899 58.73 14.0399 58.56 13.8599 58.41L13.8399 58.39L12.5499 59.14L12.5199 59.16L12.8599 59.74L12.0499 60.22L11.1099 58.63L13.9499 56.97C14.1799 57.22 14.7199 57.86 14.9699 58.28C15.3899 59 15.5299 59.53 15.4099 60C15.2299 60.68 14.4899 61.23 13.1699 62C11.5999 62.92 10.2199 63.55 9.24991 61.89H9.23991ZM4.52991 45.47C4.80991 45.14 5.26991 44.96 5.94991 44.91L6.07991 46.04C5.77991 46.08 5.57991 46.13 5.42991 46.22C5.21991 46.34 5.12991 46.53 5.14991 46.77C5.19991 47.2 5.49991 47.42 5.96991 47.36C6.53991 47.29 6.77991 46.76 7.03991 46.19C7.36991 45.46 7.74991 44.63 8.88991 44.5C10.5399 44.31 10.8799 45.37 10.9899 46.32C11.0599 46.91 10.9599 47.36 10.6899 47.68C10.3899 48.03 9.87991 48.23 9.11991 48.28L8.98991 47.11C9.41991 47.06 9.75991 47 9.93991 46.77C10.0399 46.64 10.0799 46.46 10.0599 46.23C10.0099 45.81 9.69991 45.6 9.19991 45.66C8.65991 45.72 8.39991 46.26 8.11991 46.83C7.75991 47.57 7.34991 48.4 6.26991 48.52C5.04991 48.66 4.38991 48.1 4.23991 46.81C4.16991 46.22 4.26991 45.77 4.52991 45.46V45.47ZM6.88991 39.35L7.04991 37.86L4.40991 37.57L4.53991 36.41L11.0499 37.12L10.9199 38.28L7.97991 37.96L7.81991 39.45L10.7599 39.77L10.6299 40.93L4.11991 40.22L4.24991 39.06L6.88991 39.35ZM9.90991 27.74L9.93991 27.76L10.5799 26.44L10.5999 26.41L8.20991 25.26L8.71991 24.21L14.6199 27.05L14.1099 28.1L11.4799 26.84L11.4499 26.82L10.7999 28.17L13.4599 29.45L12.9499 30.5L7.04991 27.66L7.55991 26.61L9.90991 27.74ZM15.6599 15.52C16.1399 15.52 16.6399 15.79 17.1899 16.33L16.4099 17.17C15.9699 16.76 15.6799 16.59 15.4499 16.6C15.3399 16.6 15.2399 16.65 15.1499 16.75C14.6399 17.3 15.1599 17.9 16.3899 19.04C17.3099 19.9 17.8599 20.34 18.2899 20.34C18.2899 20.34 18.2999 20.34 18.3099 20.34C18.4799 20.34 18.6199 20.26 18.7599 20.11C19.1499 19.69 18.6299 19.18 18.2399 18.8L18.1799 18.74L18.9699 17.89C20.1399 18.99 20.2699 19.82 19.4299 20.73C18.9999 21.19 18.5799 21.42 18.1299 21.44C17.2599 21.47 16.4499 20.71 15.5799 19.91C14.3099 18.72 13.0999 17.6 14.4799 16.12C14.8499 15.72 15.2299 15.52 15.6399 15.51H15.6599V15.52ZM17.5099 13.37L19.1799 15.38L19.1999 15.41L20.3299 14.48L20.3599 14.46L18.6699 12.42L19.5799 11.67L23.7599 16.72L22.8499 17.47L20.9899 15.22L20.9699 15.19L19.8099 16.15L21.6899 18.43L20.7899 19.18L16.6099 14.13L17.5099 13.38V13.37ZM21.4399 10.82C21.5399 10.38 21.8499 10.01 22.3899 9.68003C22.8099 9.42003 23.1799 9.31003 23.5099 9.31003C24.5299 9.31003 25.1999 10.38 25.8899 11.51C26.5099 12.52 27.0899 13.47 26.8899 14.31C26.7899 14.75 26.4799 15.12 25.9399 15.45C24.2199 16.5 23.3599 15.1 22.4499 13.62C21.8299 12.61 21.2399 11.66 21.4399 10.82ZM30.3499 9.50003C30.7999 10.53 31.2699 11.6 30.9599 12.41C30.7999 12.83 30.4399 13.16 29.8599 13.41C28.0099 14.22 27.3499 12.71 26.6499 11.12C26.1699 10.04 25.7299 9.02003 26.0399 8.21003C26.1999 7.79003 26.5599 7.46003 27.1399 7.21003C27.4999 7.05003 27.8099 6.99003 28.0799 6.99003C29.2399 6.99003 29.7799 8.22003 30.3399 9.51003L30.3499 9.50003ZM31.3999 5.75003L32.9899 11.04L34.7799 10.5L35.0799 11.48L32.1699 12.35L30.2799 6.08003L31.3999 5.74003V5.75003ZM13.8699 19.69L13.1999 20.62C12.8099 20.35 12.3399 20.1 12.0299 20.54C11.7799 20.89 11.8499 21.25 12.2399 21.53C12.6999 21.86 13.2499 21.63 13.8199 21.38C14.5599 21.06 15.3999 20.7 16.3399 21.38C16.9599 21.82 17.2499 22.3 17.2299 22.84C17.2099 23.34 16.9199 23.8 16.6799 24.14C16.3299 24.62 15.9499 24.89 15.5399 24.94C15.0799 25 14.5699 24.8 13.9799 24.33L14.6699 23.38C15.1199 23.7 15.6299 24.05 16.0499 23.45C16.1599 23.3 16.1999 23.14 16.1799 22.98C16.1499 22.79 16.0199 22.61 15.7999 22.45C15.3599 22.13 14.7999 22.35 14.2099 22.59C13.4499 22.89 12.5799 23.24 11.6999 22.6C11.2199 22.25 10.9399 21.87 10.8699 21.45C10.7999 21.01 10.9599 20.51 11.3499 19.97C11.6999 19.48 12.0699 19.22 12.4799 19.17C12.9099 19.11 13.3799 19.29 13.8999 19.71L13.8699 19.69ZM6.43991 43.97L4.13991 44.03L4.10991 43.12L6.43991 43.31V43.98V43.97ZM7.46991 29.48C7.74991 29.48 8.04991 29.54 8.35991 29.65L8.00991 30.76C7.66991 30.65 7.28991 30.56 7.01991 30.7C6.85991 30.78 6.74991 30.93 6.67991 31.15C6.62991 31.32 6.63991 31.48 6.70991 31.62C6.94991 32.09 7.84991 32.38 8.79991 32.68C10.7399 33.3 11.2099 33.27 11.4399 32.55C11.5099 32.32 11.5199 32.07 11.5099 31.91V31.88L10.0499 31.42L9.83991 32.06L8.93991 31.77L9.49991 30.01L12.6299 31.01C12.5899 31.37 12.4799 32.18 12.3299 32.64C11.6899 34.63 10.6799 34.53 8.34991 33.79C7.20991 33.43 6.22991 33.06 5.83991 32.31C5.62991 31.9 5.61991 31.4 5.80991 30.8C5.98991 30.24 6.30991 29.84 6.72991 29.63C6.94991 29.52 7.18991 29.47 7.45991 29.47L7.46991 29.48ZM11.4699 35.35L11.2299 36.5L4.82991 35.14L5.06991 33.99L11.4699 35.35ZM10.4599 50.04H10.4999L10.0799 48.21L11.0799 47.98L11.7599 50.94L5.36991 52.42L5.10991 51.28L10.4599 50.04ZM7.27991 53.02C7.56991 52.92 7.82991 52.87 8.05991 52.87C8.52991 52.87 8.89991 53.08 9.13991 53.5L9.15991 53.53L9.23991 53.5V53.44C9.16991 53.16 9.00991 52.43 10.0799 52.05C10.4799 51.91 11.5399 51.51 11.8399 51.29L12.2199 52.37C11.9499 52.6 11.5999 52.72 11.2599 52.84C11.1999 52.86 11.1399 52.88 11.0799 52.9L10.9399 52.95C10.4899 53.11 10.0999 53.24 9.94991 53.56C9.85991 53.75 9.86991 53.99 9.96991 54.28L10.0899 54.62L12.6799 53.7L13.0699 54.8L6.88991 56.99L6.12991 54.86C5.83991 54.05 6.25991 53.37 7.27991 53.01V53.02ZM13.3099 55.27L13.7999 56.33L7.84991 59.07L7.35991 58.01L13.3099 55.27ZM17.1599 71.36L21.4199 66.38L22.3099 67.14L18.0499 72.12L17.1599 71.36ZM19.8499 71.44C20.2299 70.9 20.6399 70.63 21.0899 70.63C21.2699 70.63 21.4499 70.67 21.6399 70.76H21.6699L21.7199 70.7L21.6799 70.66C21.4699 70.47 20.9199 69.96 21.5699 69.04C21.5699 69.03 22.4199 67.83 22.5699 67.41L23.4999 68.07C23.4099 68.42 23.1999 68.72 22.9899 69.01C22.9499 69.06 22.9199 69.11 22.8799 69.16L22.7999 69.28C22.5199 69.67 22.2899 70 22.3399 70.34C22.3699 70.55 22.5199 70.74 22.7799 70.92L23.0699 71.13L24.6499 68.89L25.6099 69.57L21.8399 74.92L19.9899 73.61C19.2899 73.11 19.2399 72.32 19.8599 71.44H19.8499ZM37.6999 4.31003C38.0199 4.31003 38.3899 4.39003 38.6699 4.61003C38.9099 4.80003 39.0499 5.06003 39.0899 5.39003C39.1799 6.15003 38.7899 6.64003 38.4199 7.11003C38.3799 7.16003 38.3399 7.21003 38.3099 7.25003L38.2899 7.27003L39.4599 8.59003V8.51003C39.5199 8.08003 39.5199 7.83003 39.4499 7.21003L40.3799 7.10003C40.4599 7.77003 40.5599 8.60003 40.2499 9.34003V9.36003L41.2699 10.56L40.1499 10.7L39.7099 10.21L39.6799 10.25C39.2499 10.85 38.6599 11 38.1299 11.07C37.4399 11.15 36.8899 11.04 36.4899 10.73C36.1199 10.44 35.8899 9.98003 35.8099 9.37003C35.6999 8.48003 36.2199 7.86003 36.7299 7.38003L36.7599 7.35003L36.7399 7.32003C36.4199 6.96003 35.9799 6.47003 35.8899 5.77003C35.7999 5.06003 36.4899 4.44003 37.4899 4.32003C37.5599 4.32003 37.6399 4.31003 37.7199 4.31003H37.6999Z" fill="#008156"/>
<path d="M20.94 73.13L21.42 73.47L22.52 71.9L22.04 71.56C21.64 71.27 21.19 71.6 20.91 72C20.56 72.5 20.57 72.87 20.94 73.13Z" fill="#008156"/>
<path d="M7.39005 55.58L9.20005 54.94L9.00005 54.38C8.84005 53.91 8.28005 53.92 7.82005 54.08C7.52005 54.19 7.33005 54.32 7.22005 54.48C7.12005 54.63 7.11005 54.81 7.19005 55.02L7.39005 55.58Z" fill="#008156"/>
<path d="M23.4601 13C24.1701 14.15 24.6201 14.78 25.1001 14.78C25.2201 14.78 25.3401 14.74 25.4601 14.67C25.7701 14.48 25.8501 14.21 25.7301 13.79C25.6101 13.39 25.3101 12.86 24.8701 12.13C23.9901 10.7 23.5101 10.07 22.8701 10.46C22.5601 10.65 22.4801 10.92 22.6001 11.34C22.7101 11.74 23.0201 12.27 23.4601 13Z" fill="#008156"/>
<path d="M27.7399 10.63C28.3099 11.93 28.6799 12.63 29.1999 12.63C29.2899 12.63 29.3899 12.61 29.4999 12.56C29.6799 12.48 29.7999 12.37 29.8599 12.21C30.0199 11.81 29.7799 11.14 29.2699 9.96999C28.5899 8.42999 28.1999 7.73999 27.5199 8.03999C27.3399 8.11999 27.2199 8.22999 27.1599 8.38999C26.9999 8.78999 27.2399 9.45999 27.7499 10.64L27.7399 10.63Z" fill="#008156"/>
<path d="M37.4399 8.05003C37.1899 8.33003 36.8999 8.75003 36.9599 9.22003C36.9999 9.54003 37.1199 9.79003 37.2999 9.95003C37.4499 10.09 37.6499 10.16 37.8799 10.16C37.9299 10.16 37.9799 10.16 38.0199 10.16C38.4199 10.11 38.7299 9.91003 38.8999 9.59003V9.57003L37.4599 8.03003L37.4299 8.06003L37.4399 8.05003Z" fill="#008156"/>
<path d="M53.6299 8.71994C53.9999 8.71994 54.2699 8.33994 54.3899 7.93994C54.5799 7.35994 54.4599 7.00994 54.0299 6.86994L53.4699 6.68994L52.8899 8.47994V8.51994L53.4399 8.69994C53.5099 8.71994 53.5699 8.72994 53.6299 8.72994V8.71994Z" fill="#008156"/>
<path d="M79.63 37.3L77.73 37.5401L77.8 38.1301C77.82 38.2901 77.89 38.42 78.01 38.51C78.19 38.65 78.45 38.69 78.65 38.69C78.75 38.69 78.83 38.69 78.88 38.68C79.49 38.6 79.75 38.3501 79.7 37.9001L79.63 37.3101V37.3Z" fill="#008156"/>
<path d="M61.1801 69.32C61.0201 69.43 60.9201 69.57 60.8901 69.73C60.8101 70.15 61.1701 70.76 61.9101 71.82C62.6701 72.9 63.1501 73.51 63.6201 73.51C63.7501 73.51 63.8701 73.47 64.0101 73.37C64.1701 73.26 64.2701 73.12 64.3001 72.96C64.3801 72.54 64.0201 71.92 63.2801 70.87C62.3201 69.49 61.8001 68.89 61.1801 69.32Z" fill="#008156"/>
<path d="M57.29 71.65C56.62 71.99 56.91 72.73 57.67 74.23C58.3 75.47 58.7 76.14 59.2 76.14C59.3 76.14 59.41 76.11 59.52 76.05C60.19 75.71 59.9 74.97 59.14 73.47C58.38 71.97 57.95 71.31 57.28 71.65H57.29Z" fill="#008156"/>
<path d="M40.2799 75.23C40.1599 75.22 40.0499 75.25 39.9599 75.33C39.7099 75.55 39.6699 76.06 39.6499 76.37C39.6299 76.67 39.5899 77.17 39.8099 77.41C39.8799 77.5 39.9799 77.54 40.1099 77.55C40.1199 77.55 40.1299 77.55 40.1499 77.55C40.6699 77.55 40.7299 76.73 40.7499 76.42C40.7699 76.14 40.7999 75.63 40.5799 75.38C40.4999 75.29 40.3999 75.24 40.2799 75.24V75.23Z" fill="#008156"/>
<path d="M47.7099 74.96C47.7099 74.96 47.6599 74.96 47.6299 74.96C47.0899 75.05 47.2199 75.83 47.2799 76.21C47.3399 76.58 47.4499 77.27 47.9099 77.27C47.9399 77.27 47.9599 77.27 47.9899 77.27C48.1099 77.25 48.2099 77.19 48.2799 77.1C48.4599 76.85 48.4199 76.39 48.3599 76.02C48.3099 75.7 48.1899 74.97 47.7199 74.97L47.7099 74.96Z" fill="#008156"/>
<path d="M108.09 58.5901V70.4601H106.02L101.34 60.1701H101.3V70.4601H99.96V58.5901H102.09L106.7 68.7501H106.73V58.5901H108.08H108.09Z" fill="#595757"/>
<path d="M110.85 70.4601V58.5901H116.96V59.9101H112.36V63.7201H116.64V65.0301H112.36V69.1401H117.06V70.4501H110.85V70.4601Z" fill="#595757"/>
<path d="M117.85 58.5901H119.46L121.69 68.8801H121.72L124.1 58.5901H126.06L128.21 68.8801H128.24L130.65 58.5901H132.23L129.09 70.4601H127.25L125 60.1701H124.97L122.57 70.4601H120.73L117.84 58.5901H117.85Z" fill="#595757"/>
<path d="M135.14 70.4601H133.73V58.5901H136.18L139.17 68.5501H139.2L142.23 58.5901H144.73V70.4601H143.22V59.9101H143.18L139.86 70.4601H138.43L135.18 59.9101H135.15V70.4601H135.14Z" fill="#595757"/>
<path d="M147.41 70.4601V58.5901H153.52V59.9101H148.92V63.7201H153.19V65.0301H148.92V69.1401H153.62V70.4501H147.41V70.4601Z" fill="#595757"/>
<path d="M155.67 58.5901H159.32C160.84 58.5901 161.92 59.1401 162.51 60.4001C162.98 61.4001 163.03 63.7701 163.03 64.1401C163.03 66.6701 162.8 68.1401 162.31 68.9201C161.67 69.9401 160.47 70.4501 158.4 70.4501H155.67V58.5801V58.5901ZM157.18 69.1501H158.61C160.72 69.1501 161.49 68.3501 161.49 65.6001V63.2001C161.49 60.8001 160.76 59.9101 159.18 59.9101H157.19V69.1501H157.18Z" fill="#595757"/>
<path d="M167.4 70.4601H165.89V58.5901H167.4V70.4601Z" fill="#595757"/>
<path d="M172.95 58.5901H174.87L178.73 70.4601H177.04L176.18 67.6301H171.6L170.71 70.4601H169.18L172.95 58.5901ZM173.87 59.9901H173.84L171.98 66.3101H175.77L173.86 59.9901H173.87Z" fill="#595757"/>
<path d="M189.2 61.87C189.22 61.19 189.17 60.52 188.85 60.14C188.54 59.76 187.83 59.63 187.52 59.63C186.27 59.63 185.78 60.38 185.73 60.54C185.68 60.68 185.38 60.97 185.38 63.01V66.18C185.38 69.09 186.33 69.43 187.5 69.43C187.95 69.43 189.36 69.27 189.37 66.95H190.93C191 70.7 188.35 70.7 187.58 70.7C186.1 70.7 183.83 70.6 183.83 66V62.65C183.83 59.3 185.31 58.35 187.64 58.35C189.97 58.35 190.9 59.56 190.75 61.87H189.18H189.2Z" fill="#595757"/>
<path d="M193.07 66.12V62.23C193.07 59.86 194.28 58.35 196.8 58.35C199.32 58.35 200.53 59.86 200.53 62.23V66.12C200.53 69.41 199.31 70.7 196.8 70.7C194.29 70.7 193.07 69.4 193.07 66.12ZM198.98 66.19V62.18C198.98 59.7 197.27 59.62 196.8 59.62C196.33 59.62 194.62 59.7 194.62 62.18V66.19C194.62 68.79 195.37 69.44 196.8 69.44C198.23 69.44 198.98 68.78 198.98 66.19Z" fill="#595757"/>
<path d="M211.39 58.5901V70.4601H209.32L204.64 60.1701H204.61V70.4601H203.27V58.5901H205.4L210.02 68.7501H210.05V58.5901H211.4H211.39Z" fill="#595757"/>
<path d="M220.8 58.5901V59.9101H217.68V70.4601H216.16V59.9101H213.04V58.5901H220.79H220.8Z" fill="#595757"/>
<path d="M222.38 70.4601V58.5901H228.49V59.9101H223.89V63.7201H228.17V65.0301H223.89V69.1401H228.59V70.4501H222.38V70.4601Z" fill="#595757"/>
<path d="M238.82 58.5901V70.4601H236.75L232.07 60.1701H232.04V70.4601H230.69V58.5901H232.82L237.44 68.7501H237.47V58.5901H238.81H238.82Z" fill="#595757"/>
<path d="M248.23 58.5901V59.9101H245.11V70.4601H243.59V59.9101H240.47V58.5901H248.23Z" fill="#595757"/>
<path d="M250.97 66.93V67.28C250.97 68.89 251.99 69.4 252.96 69.4C254.16 69.4 255.08 68.89 255.08 67.48C255.08 64.86 249.76 65.15 249.76 61.58C249.76 59.48 251.26 58.36 253.24 58.36C255.41 58.36 256.62 59.41 256.53 61.83H254.95C254.96 60.53 254.55 59.68 253.13 59.68C252.23 59.68 251.31 60.14 251.31 61.42C251.31 64.03 256.63 63.65 256.63 67.42C256.63 69.92 254.91 70.72 252.95 70.72C249.45 70.75 249.45 68.08 249.48 66.94H250.98L250.97 66.93Z" fill="#595757"/>
<path d="M262.26 70.4601V58.5901H266.25L268.1 66.6601H268.14L270.11 58.5901H273.97V70.4601H271.56V61.3101H271.53L269.25 70.4601H266.88L264.71 61.3101H264.68V70.4601H262.27H262.26Z" fill="#595757"/>
<path d="M276.01 70.4601V58.5901H278.5V70.4601H276.01Z" fill="#595757"/>
<path d="M283.02 70.4601H280.54V58.5901H285.12C286.81 58.5901 287.9 59.6801 287.9 61.7001C287.9 63.2101 287.31 64.3501 285.7 64.6001V64.6301C286.25 64.7001 287.86 64.8301 287.86 66.9601C287.86 67.7101 287.9 69.9501 288.14 70.4401H285.71C285.38 69.7201 285.45 68.9101 285.45 68.1401C285.45 66.7201 285.58 65.5301 283.68 65.5301H283.04V70.4401L283.02 70.4601ZM283.02 63.7201H284.12C285.11 63.7201 285.38 62.7401 285.38 61.9801C285.38 60.8501 284.91 60.4201 284.12 60.4201H283.02V63.7201Z" fill="#595757"/>
<path d="M289.74 70.4601V58.5901H292.22V70.4601H289.74Z" fill="#595757"/>
<path d="M294.26 70.4601V58.5901H298.25L300.1 66.6601H300.13L302.1 58.5901H305.97V70.4601H303.55V61.3101H303.52L301.23 70.4601H298.87L296.71 61.3101H296.67V70.4601H294.26Z" fill="#595757"/>
<path d="M311.63 70.4601V58.5901H315.62L317.48 66.6601H317.51L319.49 58.5901H323.35V70.4601H320.93V61.3101H320.9L318.62 70.4601H316.25L314.09 61.3101H314.06V70.4601H311.65H311.63Z" fill="#595757"/>
<path d="M325.38 70.4601V58.5901H331.85V60.4201H327.86V63.3401H331.54V65.1601H327.86V68.6301H331.99V70.4501H325.38V70.4601Z" fill="#595757"/>
<path d="M333.6 70.4601V58.5901H336.08V70.4601H333.6Z" fill="#595757"/>
<path d="M341.4 70.6599C338.33 70.6599 337.74 68.8499 337.88 66.7999H340.36C340.36 67.9399 340.41 68.8899 341.78 68.8899C342.62 68.8899 343.03 68.3499 343.03 67.5499C343.03 65.4099 338.04 65.2799 338.04 61.7499C338.04 59.8899 338.93 58.4099 341.95 58.4099C344.36 58.4099 345.56 59.4899 345.4 61.9699H342.99C342.99 61.0799 342.84 60.1799 341.84 60.1799C341.04 60.1799 340.56 60.6199 340.56 61.4399C340.56 63.6999 345.55 63.4899 345.55 67.2299C345.55 70.3099 343.3 70.6699 341.41 70.6699L341.4 70.6599Z" fill="#595757"/>
<path d="M354.4 58.5901V60.5601H351.63V70.4501H349.15V60.5601H346.39V58.5901H354.4Z" fill="#595757"/>
<path d="M355.55 70.4601V58.5901H362.02V60.4201H358.03V63.3401H361.71V65.1601H358.03V68.6301H362.15V70.4501H355.55V70.4601Z" fill="#595757"/>
<path d="M366.21 70.4601H363.73V58.5901H368.31C370 58.5901 371.09 59.6801 371.09 61.7001C371.09 63.2101 370.5 64.3501 368.89 64.6001V64.6301C369.43 64.7001 371.05 64.8301 371.05 66.9601C371.05 67.7101 371.1 69.9501 371.33 70.4401H368.89C368.56 69.7201 368.63 68.9101 368.63 68.1401C368.63 66.7201 368.76 65.5301 366.86 65.5301H366.22V70.4401L366.21 70.4601ZM366.21 63.7201H367.31C368.3 63.7201 368.58 62.7401 368.58 61.9801C368.58 60.8501 368.1 60.4201 367.31 60.4201H366.21V63.7201Z" fill="#595757"/>
<path d="M379.8 70.6599C376.72 70.6599 376.15 68.8499 376.28 66.7999H378.76C378.76 67.9399 378.81 68.8899 380.18 68.8899C381.01 68.8899 381.43 68.3499 381.43 67.5499C381.43 65.4099 376.43 65.2799 376.43 61.7499C376.43 59.8899 377.32 58.4099 380.35 58.4099C382.76 58.4099 383.96 59.4899 383.8 61.9699H381.38C381.38 61.0799 381.24 60.1799 380.23 60.1799C379.42 60.1799 378.95 60.6199 378.95 61.4399C378.95 63.6999 383.95 63.4899 383.95 67.2299C383.95 70.3099 381.7 70.6699 379.81 70.6699L379.8 70.6599Z" fill="#595757"/>
<path d="M385.61 64.53C385.61 61.39 385.61 58.4 389.7 58.4C392.23 58.4 393.25 59.79 393.15 62.34H390.72C390.72 60.76 390.44 60.17 389.7 60.17C388.3 60.17 388.12 61.48 388.12 64.52C388.12 67.56 388.3 68.88 389.7 68.88C390.86 68.88 390.8 67.4 390.84 66.46H393.29C393.29 69.63 392.02 70.65 389.7 70.65C385.61 70.65 385.61 67.62 385.61 64.52V64.53Z" fill="#595757"/>
<path d="M400.29 63.35V58.6H402.77V70.47H400.29V65.18H397.44V70.47H394.96V58.6H397.44V63.35H400.29Z" fill="#595757"/>
<path d="M404.82 64.53C404.82 61.39 404.82 58.4 408.91 58.4C413 58.4 413 61.39 413 64.53C413 67.67 413 70.66 408.91 70.66C404.82 70.66 404.82 67.63 404.82 64.53ZM410.48 64.53C410.48 61.49 410.3 60.18 408.9 60.18C407.5 60.18 407.32 61.49 407.32 64.53C407.32 67.57 407.5 68.89 408.9 68.89C410.3 68.89 410.48 67.58 410.48 64.53Z" fill="#595757"/>
<path d="M414.86 64.53C414.86 61.39 414.86 58.4 418.96 58.4C423.06 58.4 423.06 61.39 423.06 64.53C423.06 67.67 423.06 70.66 418.96 70.66C414.86 70.66 414.86 67.63 414.86 64.53ZM420.54 64.53C420.54 61.49 420.36 60.18 418.96 60.18C417.56 60.18 417.38 61.49 417.38 64.53C417.38 67.57 417.56 68.89 418.96 68.89C420.36 68.89 420.54 67.58 420.54 64.53Z" fill="#595757"/>
<path d="M425.05 70.4601V58.5901H427.53V68.4901H431.25V70.4601H425.06H425.05Z" fill="#595757"/>
<path d="M117.38 19.8899C117.45 18.0299 116.62 17.1099 115.53 17.1099H98.6899V36.0699C98.6899 37.9699 99.2499 38.8799 100.5 39.0199H117.4L117.38 19.8999V19.8899ZM111.58 35.0699H105.36C104.68 35.0699 104.34 34.7599 104.34 34.1399V20.9799H110.74C111.31 20.9799 111.59 21.2799 111.59 21.8999V35.0699H111.58Z" fill="#008156"/>
<path d="M183.82 19.8899C183.89 18.0299 183.06 17.1099 181.97 17.1099H165.22V36.0699C165.22 37.9699 165.78 38.8799 167.03 39.0199H183.84L183.82 19.8999V19.8899ZM178.02 35.0699H171.89C171.21 35.0699 170.87 34.7599 170.87 34.1399V20.9799H177.18C177.75 20.9799 178.03 21.2799 178.03 21.8999V35.0699H178.02Z" fill="#008156"/>
<path d="M193.17 16.58H187.64V49.43H193.17V30.73H198.61V26.67H193.17V16.58Z" fill="#008156"/>
<path d="M321.49 22.4999V29.2199C321.49 32.4099 320.87 35.1699 320.26 37.1199H324.59C325.89 34.9899 327.25 31.8299 327.25 27.9899C327.25 27.9899 327.22 21.8399 327.22 20.3399C327.22 18.5399 326.33 17.5499 325.35 17.5499H303.72V21.2399H320.4C321.13 21.2399 321.49 21.6699 321.49 22.4999Z" fill="#008156"/>
<path d="M339.37 29.01H359.91V25.36H342.92C342.25 25.36 341.93 25.03 341.93 24.41V20.41H359.81V16.75H336.27V26.14C336.27 27.12 336.5 27.85 336.97 28.32C337.43 28.78 338.23 29.01 339.36 29.01H339.37Z" fill="#008156"/>
<path d="M364.09 31.05H331.99V34.67H364.09V31.05Z" fill="#008156"/>
<path d="M355.56 38.08C353.83 36.77 351.31 36.12 348.03 36.12C344.75 36.12 342.25 36.78 340.52 38.08C338.78 39.4 337.92 41.18 337.92 43.43C337.92 45.68 338.79 47.49 340.52 48.78C342.25 50.09 344.77 50.74 348.03 50.74C351.29 50.74 353.83 50.09 355.56 48.78C357.29 47.48 358.15 45.7 358.15 43.43C358.15 41.16 357.29 39.4 355.56 38.08ZM351.77 46.27C350.82 46.97 349.58 47.32 348.03 47.32C346.48 47.32 345.26 46.97 344.31 46.27C343.35 45.56 342.88 44.61 342.88 43.42C342.88 42.23 343.35 41.29 344.31 40.6C345.25 39.91 346.5 39.56 348.03 39.56C349.56 39.56 350.81 39.91 351.77 40.6C352.71 41.3 353.19 42.24 353.19 43.42C353.19 44.6 352.72 45.56 351.77 46.27Z" fill="#008156"/>
<path d="M392.04 37.3099H370.07V40.9999H387.46C387.92 40.9999 388.22 41.3899 388.22 41.9999V49.4399H393.9V39.4899C393.9 38.4599 393.61 37.3199 392.04 37.3199V37.3099Z" fill="#008156"/>
<path d="M381.88 33.59C383.41 32.25 383.97 30.42 383.97 28.09C383.97 25.76 383.19 23.99 382.37 23.22H385.74V19.52H378.47V15.45H372.82V19.52H365.37V23.22H369.08C368.18 24.12 367.33 25.64 367.33 28.09C367.33 30.41 367.9 32.25 369.43 33.59C370.96 34.94 373.04 35.61 375.67 35.61C378.3 35.61 380.37 34.93 381.89 33.59H381.88ZM372.36 28.11C372.36 27.01 372.66 25.81 373.25 25.14C373.84 24.48 374.64 24.13 375.65 24.13C376.66 24.13 377.43 24.48 378.05 25.14C378.66 25.81 378.95 27 378.95 28.11C378.95 29.22 378.66 30.33 378.05 31C377.43 31.66 376.64 32 375.65 32C374.66 32 373.84 31.66 373.25 31C372.66 30.33 372.36 29.21 372.36 28.11Z" fill="#008156"/>
<path d="M393.72 16.58H388.07V35.77H389.17H392.06H393.72V28.42H399.17V24.74H393.72V16.58Z" fill="#008156"/>
<path d="M316.15 39.3899V28.5699H310.51V39.3899H299.96V43.0699H331.38V39.3899H316.15Z" fill="#008156"/>
<path d="M421.39 22.4999V31.3799C421.39 33.5099 421.09 35.4599 420.7 37.1199H424.81C425.8 34.8599 426.64 32.0499 426.64 29.0399C426.64 29.0099 426.63 28.9799 426.63 28.9499H426.64C426.64 28.9499 426.62 21.9399 426.62 20.3299C426.62 18.7199 425.91 17.5399 424.72 17.5399H402.2V21.2299H420.28C421.02 21.2299 421.38 21.6599 421.38 22.4899L421.39 22.4999Z" fill="#008156"/>
<path d="M426.15 39.42H423.15H419.22H418.49H418.44V28.46H413.7V39.42H410.59V28.46H405.87V39.42H398.86V43.11H429.99V39.42H426.15Z" fill="#008156"/>
<path d="M224.08 16.6699V21.0799V25.4799V30.7699V35.2599V49.5199H229.7V16.6699H224.08Z" fill="#008156"/>
<path d="M220.4 24.7099C220.07 23.2199 219.53 21.6699 218.42 20.0999C217.3 18.5199 215.38 16.6699 210.83 16.6699C206.28 16.6699 204.36 18.5099 203.24 20.0999C202.13 21.6699 201.58 23.2199 201.26 24.7099C200.91 26.2999 200.91 27.9199 200.91 27.9199V28.2499V28.6099C200.91 28.6099 200.91 30.2299 201.26 31.8199C201.59 33.3099 202.13 34.8599 203.24 36.4299C204.36 38.0099 206.28 40.2299 210.83 40.2299C215.38 40.2299 217.3 38.0099 218.42 36.4299C219.53 34.8599 220.08 33.3099 220.4 31.8199C220.75 30.2299 220.75 28.6099 220.75 28.6099V28.2799V27.9199C220.75 27.9199 220.75 26.2999 220.4 24.7099ZM214.1 33.7899C213.47 35.0399 212.42 35.9099 210.83 35.9099C209.23 35.9099 208.18 35.0299 207.56 33.7899C206.88 32.4399 206.6 30.5599 206.59 28.2599C206.59 25.9599 206.88 24.2299 207.56 22.8799C208.19 21.6299 209.24 20.6999 210.83 20.6999C212.43 20.6999 213.48 21.6299 214.1 22.8799C214.78 24.2299 215.06 25.9599 215.07 28.2599C215.07 30.5599 214.78 32.4399 214.1 33.7899Z" fill="#008156"/>
<path d="M244.03 31.4099C246.26 29.7899 247.79 28.0099 248.58 26.0099C249.44 27.9399 251.07 29.7699 253.46 31.4599C255.87 33.1699 258.42 34.1399 261.02 34.9299L262.63 31.7299C259.13 30.3399 251.36 27.0399 251.36 18.5999V17.0499H245.52V18.4799C245.52 24.6899 241.65 29.2099 234.79 31.8199L236.2 35.0899C239.38 34.1599 241.77 33.0099 244.03 31.4099Z" fill="#008156"/>
<path d="M264.49 39.2H232.38V43.04H264.49V39.2Z" fill="#008156"/>
<path d="M290.41 26.8299H284.66V30.5099H290.41V49.5199H296.04V16.6699H290.41V26.8299Z" fill="#008156"/>
<path d="M288.13 35.2499C284.44 36.9499 280.92 36.9499 278.97 37.0299C277.69 37.0799 275.89 37.1099 275.17 37.0199C274.44 36.9499 273.9 36.3899 273.9 35.5899V30.0399H282.71V26.3999H273.9V20.7499H284.52V17.0599H268.24V35.9699C268.24 37.5299 268.71 38.8999 269.55 39.6999C270.58 40.6799 271.92 41.1199 273.37 41.1199C278.18 41.1199 284.19 40.0399 288.13 37.7799V35.2699V35.2499Z" fill="#008156"/>
<path d="M149.24 34.76C151.63 34.15 153.19 32.78 153.92 32.07V35.39H159.57V16.58H153.92V27.13C153.92 28.21 153.29 29.42 152.68 29.87C152.06 30.43 151.07 31.11 149.62 31.39C148.18 31.68 145.71 31.82 142.79 31.82C141.3 31.82 140.1 31.76 139.21 31.66C138.32 31.56 137.88 31.18 137.88 30.53V27.9H149.48L149.5 19.41C149.48 17.83 148.86 17.05 147.21 17.05H132.23V20.6H142.99C143.58 20.6 143.87 20.93 143.87 21.59V24.44H132.21V31.66C132.21 34.09 133.31 35.25 135.48 35.53C136.54 35.67 137.86 35.74 139.45 35.74C143.6 35.74 147.05 35.34 149.24 34.78V34.76Z" fill="#008156"/>
<path d="M158.19 37.36H137.05V46.57C137.05 47.62 137.27 48.38 137.73 48.84C138.19 49.3 138.94 49.52 140 49.52H159.69V39.78C159.69 38.24 159.19 37.36 158.19 37.36ZM154.26 45.86H143.37C142.68 45.86 142.35 45.55 142.35 44.92V41.01H153.59C154.03 41.01 154.26 41.25 154.26 41.72V45.87V45.86Z" fill="#008156"/>
<path d="M127.08 16.58H121.42V49.43H127.08V16.58Z" fill="#008156"/>
</g>
<defs>
<clipPath id="clip0_21_3">
<rect width="431.25" height="85.04" fill="white"/>
</clipPath>
</defs>
</svg>
